<svg data-v-423bf9ae="" xmlns="http://www.w3.org/2000/svg" viewBox="0 0 612 90" class="iconLeft"><!----><!----><!----><g data-v-423bf9ae="" id="40384afc-db39-4bd2-ba2a-78f557175776" fill="white" transform="matrix(5.830904006958008,0,0,5.830904006958008,108.60134887695312,2.3469369411468506)"><path d="M4.24 12.46L4.24 12.46Q2.46 12.46 1.35 11.84L1.35 11.84L1.35 11.84Q0.24 11.21 0.24 10.01L0.24 10.01L0.24 10.01Q0.24 9.63 0.35 9.21L0.35 9.21L2.16 9.21L2.16 9.21Q2.07 9.55 2.07 9.72L2.07 9.72L2.07 9.72Q2.07 10.30 2.60 10.63L2.60 10.63L2.60 10.63Q3.14 10.95 4.09 10.95L4.09 10.95L4.09 10.95Q5.31 10.95 5.92 10.58L5.92 10.58L5.92 10.58Q6.52 10.21 6.52 9.56L6.52 9.56L6.52 9.56Q6.52 9.17 6.24 8.90L6.24 8.90L6.24 8.90Q5.95 8.64 5.52 8.47L5.52 8.47L5.52 8.47Q5.08 8.30 4.34 8.08L4.34 8.08L4.34 8.08Q3.35 7.78 2.73 7.52L2.73 7.52L2.73 7.52Q2.11 7.25 1.68 6.75L1.68 6.75L1.68 6.75Q1.25 6.26 1.25 5.47L1.25 5.47L1.25 5.47Q1.25 4.51 1.79 3.84L1.79 3.84L1.79 3.84Q2.32 3.18 3.23 2.85L3.23 2.85L3.23 2.85Q4.13 2.52 5.22 2.52L5.22 2.52L5.22 2.52Q6.87 2.52 7.88 3.09L7.88 3.09L7.88 3.09Q8.89 3.65 8.89 4.77L8.89 4.77L8.89 4.77Q8.89 5.07 8.82 5.47L8.82 5.47L7.06 5.47L7.06 5.47Q7.10 5.28 7.10 5.12L7.10 5.12L7.10 5.12Q7.10 4.61 6.62 4.32L6.62 4.32L6.62 4.32Q6.15 4.03 5.32 4.03L5.32 4.03L5.32 4.03Q4.30 4.03 3.70 4.35L3.70 4.35L3.70 4.35Q3.09 4.66 3.09 5.22L3.09 5.22L3.09 5.22Q3.09 5.71 3.60 5.98L3.60 5.98L3.60 5.98Q4.12 6.26 5.18 6.57L5.18 6.57L5.18 6.57Q6.20 6.86 6.84 7.13L6.84 7.13L6.84 7.13Q7.48 7.41 7.94 7.92L7.94 7.92L7.94 7.92Q8.40 8.43 8.40 9.23L8.40 9.23L8.40 9.23Q8.40 10.35 7.81 11.07L7.81 11.07L7.81 11.07Q7.22 11.80 6.29 12.13L6.29 12.13L6.29 12.13Q5.35 12.46 4.24 12.46L4.24 12.46ZM12.88 12.46L12.88 12.46Q11.94 12.46 11.21 12.08L11.21 12.08L11.21 12.08Q10.49 11.70 10.08 11.03L10.08 11.03L10.08 11.03Q9.67 10.35 9.66 9.45L9.66 9.45L9.66 9.45Q9.66 8.83 9.76 8.30L9.76 8.30L9.76 8.30Q10.04 6.57 11.03 5.66L11.03 5.66L11.03 5.66Q12.01 4.76 13.75 4.76L13.75 4.76L13.75 4.76Q14.70 4.76 15.43 5.13L15.43 5.13L15.43 5.13Q16.16 5.50 16.56 6.19L16.56 6.19L16.56 6.19Q16.97 6.87 16.98 7.76L16.98 7.76L16.98 7.76Q16.98 8.33 16.90 8.92L16.90 8.92L16.90 8.92Q16.31 12.46 12.88 12.46L12.88 12.46ZM12.99 11.07L12.99 11.07Q14 11.07 14.55 10.49L14.55 10.49L14.55 10.49Q15.11 9.90 15.27 8.62L15.27 8.62L15.27 8.62Q15.34 8.22 15.34 7.73L15.34 7.73L15.34 7.73Q15.33 6.97 14.88 6.55L14.88 6.55L14.88 6.55Q14.43 6.13 13.62 6.13L13.62 6.13L13.62 6.13Q12.63 6.13 12.08 6.73L12.08 6.73L12.08 6.73Q11.54 7.32 11.37 8.60L11.37 8.60L11.37 8.60Q11.31 9.03 11.31 9.49L11.31 9.49L11.31 9.49Q11.33 10.23 11.76 10.65L11.76 10.65L11.76 10.65Q12.19 11.07 12.99 11.07L12.99 11.07ZM17.81 12.29L19.59 2.17L21.27 2.17L19.49 12.29L17.81 12.29ZM24.79 12.46L24.79 12.46Q23.86 12.46 23.13 12.08L23.13 12.08L23.13 12.08Q22.40 11.70 21.99 11.03L21.99 11.03L21.99 11.03Q21.59 10.35 21.57 9.45L21.57 9.45L21.57 9.45Q21.57 8.83 21.67 8.30L21.67 8.30L21.67 8.30Q21.95 6.57 22.94 5.66L22.94 5.66L22.94 5.66Q23.93 4.76 25.66 4.76L25.66 4.76L25.66 4.76Q26.61 4.76 27.34 5.13L27.34 5.13L27.34 5.13Q28.07 5.50 28.48 6.19L28.48 6.19L28.48 6.19Q28.88 6.87 28.90 7.76L28.90 7.76L28.90 7.76Q28.90 8.33 28.81 8.92L28.81 8.92L28.81 8.92Q28.22 12.46 24.79 12.46L24.79 12.46ZM24.91 11.07L24.91 11.07Q25.91 11.07 26.47 10.49L26.47 10.49L26.47 10.49Q27.02 9.90 27.19 8.62L27.19 8.62L27.19 8.62Q27.26 8.22 27.26 7.73L27.26 7.73L27.26 7.73Q27.24 6.97 26.80 6.55L26.80 6.55L26.80 6.55Q26.35 6.13 25.54 6.13L25.54 6.13L25.54 6.13Q24.54 6.13 24.00 6.73L24.00 6.73L24.00 6.73Q23.45 7.32 23.28 8.60L23.28 8.60L23.28 8.60Q23.23 9.03 23.23 9.49L23.23 9.49L23.23 9.49Q23.24 10.23 23.67 10.65L23.67 10.65L23.67 10.65Q24.11 11.07 24.91 11.07L24.91 11.07ZM32.41 12.46L32.41 12.46Q31.15 12.46 30.48 11.75L30.48 11.75L30.48 11.75Q29.81 11.03 29.81 9.55L29.81 9.55L29.81 9.55Q29.81 8.36 30.21 7.25L30.21 7.25L30.21 7.25Q30.60 6.15 31.39 5.45L31.39 5.45L31.39 5.45Q32.17 4.76 33.26 4.76L33.26 4.76L33.26 4.76Q34.06 4.76 34.59 5.02L34.59 5.02L34.59 5.02Q35.11 5.28 35.45 5.78L35.45 5.78L35.53 5.78L36.16 2.17L37.84 2.17L36.06 12.29L34.71 12.29L34.71 11.31L34.62 11.31L34.62 11.31Q34.20 11.86 33.63 12.16L33.63 12.16L33.63 12.16Q33.05 12.46 32.41 12.46L32.41 12.46ZM32.91 11.02L32.91 11.02Q33.67 11.02 34.17 10.53L34.17 10.53L34.17 10.53Q34.66 10.04 34.90 9.28L34.90 9.28L34.90 9.28Q35.13 8.51 35.13 7.69L35.13 7.69L35.13 7.69Q35.13 6.16 33.73 6.16L33.73 6.16L33.73 6.16Q32.58 6.16 32.07 7.17L32.07 7.17L32.07 7.17Q31.56 8.19 31.56 9.49L31.56 9.49L31.56 9.49Q31.56 10.28 31.89 10.65L31.89 10.65L31.89 10.65Q32.21 11.02 32.91 11.02L32.91 11.02ZM39.51 3.78L39.79 2.17L41.47 2.17L41.19 3.78L39.51 3.78ZM38.01 12.29L39.31 4.93L40.99 4.93L39.69 12.29L38.01 12.29ZM43.58 12.46L43.58 12.46Q42.73 12.46 42.35 12.08L42.35 12.08L42.35 12.08Q41.97 11.70 41.97 11.09L41.97 11.09L41.97 11.09Q41.97 10.82 42.14 9.94L42.14 9.94L42.77 6.30L41.89 6.30L42.13 4.93L43.01 4.93L43.37 2.87L45.16 2.87L44.69 4.93L45.96 4.93L45.71 6.30L44.45 6.30L43.76 10.22L43.76 10.22Q43.69 10.50 43.69 10.65L43.69 10.65L43.69 10.65Q43.69 11.09 44.20 11.09L44.20 11.09L44.87 11.09L44.67 12.24L44.67 12.24Q44.45 12.32 44.13 12.39L44.13 12.39L44.13 12.39Q43.82 12.46 43.58 12.46L43.58 12.46ZM49.41 12.46L49.41 12.46Q47.74 12.46 46.92 11.77L46.92 11.77L46.92 11.77Q46.10 11.07 46.10 9.63L46.10 9.63L46.10 9.63Q46.10 8.32 46.52 7.21L46.52 7.21L46.52 7.21Q46.93 6.10 47.82 5.43L47.82 5.43L47.82 5.43Q48.71 4.76 50.08 4.76L50.08 4.76L50.08 4.76Q53.07 4.76 53.07 7.43L53.07 7.43L53.07 7.43Q53.07 7.99 52.96 8.51L52.96 8.51L52.88 9.02L47.85 9.02L47.85 9.02Q47.81 9.24 47.81 9.62L47.81 9.62L47.81 9.62Q47.81 10.39 48.18 10.76L48.18 10.76L48.18 10.76Q48.55 11.13 49.35 11.13L49.35 11.13L49.35 11.13Q50.06 11.13 50.52 10.78L50.52 10.78L50.52 10.78Q50.97 10.43 51.10 9.72L51.10 9.72L52.75 9.72L52.75 9.72Q52.54 11.07 51.64 11.77L51.64 11.77L51.64 11.77Q50.74 12.46 49.41 12.46L49.41 12.46ZM48.09 7.83L51.35 7.83L51.35 7.83Q51.39 7.57 51.39 7.34L51.39 7.34L51.39 7.34Q51.39 6.69 51.06 6.39L51.06 6.39L51.06 6.39Q50.72 6.09 50.12 6.09L50.12 6.09L50.12 6.09Q48.57 6.09 48.09 7.83L48.09 7.83ZM62.03 12.46L62.03 12.46Q60.24 12.46 59.28 11.70L59.28 11.70L59.28 11.70Q58.31 10.95 58.31 9.51L58.31 9.51L58.31 9.51Q58.31 9.09 58.39 8.62L58.39 8.62L59.43 2.69L61.22 2.69L60.17 8.65L60.17 8.65Q60.10 9.00 60.10 9.25L60.10 9.25L60.10 9.25Q60.10 10.08 60.59 10.51L60.59 10.51L60.59 10.51Q61.08 10.95 62.03 10.95L62.03 10.95L62.03 10.95Q63.11 10.95 63.81 10.37L63.81 10.37L63.81 10.37Q64.50 9.80 64.69 8.69L64.69 8.69L65.76 2.69L67.55 2.69L66.49 8.74L66.49 8.74Q65.81 12.46 62.03 12.46L62.03 12.46ZM69.76 12.46L69.76 12.46Q68.91 12.46 68.53 12.08L68.53 12.08L68.53 12.08Q68.15 11.70 68.15 11.09L68.15 11.09L68.15 11.09Q68.15 10.82 68.32 9.94L68.32 9.94L68.95 6.30L68.07 6.30L68.31 4.93L69.19 4.93L69.55 2.87L71.34 2.87L70.87 4.93L72.14 4.93L71.89 6.30L70.63 6.30L69.94 10.22L69.94 10.22Q69.87 10.50 69.87 10.65L69.87 10.65L69.87 10.65Q69.87 11.09 70.38 11.09L70.38 11.09L71.05 11.09L70.85 12.24L70.85 12.24Q70.63 12.32 70.31 12.39L70.31 12.39L70.31 12.39Q70 12.46 69.76 12.46L69.76 12.46ZM73.71 3.78L73.99 2.17L75.67 2.17L75.39 3.78L73.71 3.78ZM72.21 12.29L73.51 4.93L75.19 4.93L73.89 12.29L72.21 12.29ZM75.84 12.29L77.62 2.17L79.30 2.17L77.52 12.29L75.84 12.29ZM82.47 12.46L82.47 12.46Q80.96 12.46 80.16 11.94L80.16 11.94L80.16 11.94Q79.37 11.41 79.37 10.54L79.37 10.54L79.37 10.54Q79.37 10.35 79.41 10.18L79.41 10.18L79.41 10.18Q79.45 10.01 79.46 9.97L79.46 9.97L81.10 9.97L81.10 9.97Q81.05 10.09 81.05 10.23L81.05 10.23L81.05 10.23Q81.05 10.71 81.45 10.93L81.45 10.93L81.45 10.93Q81.86 11.14 82.49 11.14L82.49 11.14L82.49 11.14Q83.16 11.14 83.65 10.91L83.65 10.91L83.65 10.91Q84.14 10.68 84.14 10.22L84.14 10.22L84.14 10.22Q84.14 9.81 83.75 9.62L83.75 9.62L83.75 9.62Q83.36 9.42 82.50 9.18L82.50 9.18L82.50 9.18Q81.75 8.99 81.26 8.79L81.26 8.79L81.26 8.79Q80.78 8.60 80.44 8.22L80.44 8.22L80.44 8.22Q80.09 7.84 80.09 7.24L80.09 7.24L80.09 7.24Q80.09 6.08 81.02 5.42L81.02 5.42L81.02 5.42Q81.94 4.76 83.37 4.76L83.37 4.76L83.37 4.76Q84.69 4.76 85.48 5.22L85.48 5.22L85.48 5.22Q86.27 5.68 86.27 6.47L86.27 6.47L86.27 6.47Q86.27 6.65 86.23 6.82L86.23 6.82L86.23 6.82Q86.20 7 86.17 7.07L86.17 7.07L84.53 7.07L84.53 7.07Q84.56 6.99 84.56 6.86L84.56 6.86L84.56 6.86Q84.56 6.50 84.25 6.29L84.25 6.29L84.25 6.29Q83.94 6.09 83.34 6.09L83.34 6.09L83.34 6.09Q82.61 6.09 82.23 6.33L82.23 6.33L82.23 6.33Q81.84 6.57 81.84 6.90L81.84 6.90L81.84 6.90Q81.84 7.25 82.20 7.42L82.20 7.42L82.20 7.42Q82.56 7.59 83.37 7.80L83.37 7.80L83.37 7.80Q84.15 7.99 84.66 8.18L84.66 8.18L84.66 8.18Q85.16 8.37 85.53 8.77L85.53 8.77L85.53 8.77Q85.89 9.17 85.89 9.81L85.89 9.81L85.89 9.81Q85.89 11.17 84.92 11.82L84.92 11.82L84.92 11.82Q83.94 12.46 82.47 12.46L82.47 12.46Z"></path></g><!----><g data-v-423bf9ae="" id="920084e6-516c-4332-8000-043199d545bb" transform="matrix(1.2677887678146362,0,0,1.2677887678146362,-0.046626392751932144,-0.06366841495037079)" stroke="none" fill="white"><path d="M35.221 6.247C29.245.271 20.509-1.244 13.124 1.685l14.129 14.129a2.01 2.01 0 0 1-.002 2.836l-8.667 8.667a2.014 2.014 0 0 1-2.836.003L1.619 13.19C-1.309 20.575.207 29.312 6.181 35.285c5.17 5.172 12.41 6.988 19.052 5.488l27.248 27.25c4.273 4.273 11.202 4.273 15.475-.002 4.276-4.273 4.276-11.201 0-15.477l-.014-.012-27.231-27.233c1.497-6.644-.32-13.883-5.49-19.052zm28.835 57.875a5.428 5.428 0 0 1-7.674-.002 5.427 5.427 0 1 1 7.674.002z"></path></g><!----></svg>